<svg xmlns="http://www.w3.org/2000/svg" xmlns:xlink="http://www.w3.org/1999/xlink" width="554" zoomAndPan="magnify" viewBox="0 0 415.5 149.249994" height="199" preserveAspectRatio="xMidYMid meet" version="1.0"><defs><g/><clipPath id="0f7a5748f0"><path d="M 0.789062 0 L 414.210938 0 L 414.210938 148.503906 L 0.789062 148.503906 Z M 0.789062 0 " clip-rule="nonzero"/></clipPath><clipPath id="92a28ca354"><path d="M 154 0 L 258 0 L 258 51.804688 L 154 51.804688 Z M 154 0 " clip-rule="nonzero"/></clipPath><clipPath id="24c349b890"><path d="M 198 45 L 205 45 L 205 51.804688 L 198 51.804688 Z M 198 45 " clip-rule="nonzero"/></clipPath><clipPath id="c2f68101a4"><path d="M 207 45 L 214 45 L 214 51.804688 L 207 51.804688 Z M 207 45 " clip-rule="nonzero"/></clipPath><clipPath id="622e1f5335"><path d="M 64.421875 20 L 171 20 L 171 51.804688 L 64.421875 51.804688 Z M 64.421875 20 " clip-rule="nonzero"/></clipPath><clipPath id="c7eff5facc"><path d="M 241 20 L 347.683594 20 L 347.683594 51.804688 L 241 51.804688 Z M 241 20 " clip-rule="nonzero"/></clipPath></defs><g clip-path="url(#0f7a5748f0)"><path fill="#ffffff" d="M 0.789062 0 L 414.210938 0 L 414.210938 148.503906 L 0.789062 148.503906 Z M 0.789062 0 " fill-opacity="1" fill-rule="nonzero"/></g><g fill="#f97316" fill-opacity="1"><g transform="translate(135.468077, 134.634275)"><g><path d="M 9.546875 -14.53125 C 8.160156 -14.53125 7.085938 -14.007812 6.328125 -12.96875 C 5.566406 -11.925781 5.1875 -10.476562 5.1875 -8.625 C 5.1875 -4.757812 6.640625 -2.828125 9.546875 -2.828125 C 10.765625 -2.828125 12.238281 -3.128906 13.96875 -3.734375 L 13.96875 -0.65625 C 12.539062 -0.0625 10.953125 0.234375 9.203125 0.234375 C 6.679688 0.234375 4.75 -0.523438 3.40625 -2.046875 C 2.070312 -3.578125 1.40625 -5.773438 1.40625 -8.640625 C 1.40625 -10.441406 1.734375 -12.019531 2.390625 -13.375 C 3.046875 -14.726562 3.988281 -15.765625 5.21875 -16.484375 C 6.445312 -17.210938 7.890625 -17.578125 9.546875 -17.578125 C 11.222656 -17.578125 12.914062 -17.171875 14.625 -16.359375 L 13.4375 -13.375 C 12.78125 -13.6875 12.125 -13.957031 11.46875 -14.1875 C 10.820312 -14.414062 10.179688 -14.53125 9.546875 -14.53125 Z M 9.546875 -14.53125 "/></g></g></g><g fill="#f97316" fill-opacity="1"><g transform="translate(154.111293, 134.634275)"><g><path d="M 12.796875 0 L 11.53125 -4.125 L 5.21875 -4.125 L 3.953125 0 L 0 0 L 6.125 -17.40625 L 10.609375 -17.40625 L 16.75 0 Z M 10.65625 -7.203125 C 9.5 -10.941406 8.847656 -13.054688 8.703125 -13.546875 C 8.554688 -14.035156 8.445312 -14.425781 8.375 -14.71875 C 8.113281 -13.707031 7.367188 -11.203125 6.140625 -7.203125 Z M 10.65625 -7.203125 "/></g></g></g><g fill="#f97316" fill-opacity="1"><g transform="translate(174.034127, 134.634275)"><g><path d="M 9.515625 0 L 5.34375 -13.59375 L 5.234375 -13.59375 C 5.390625 -10.832031 5.46875 -8.988281 5.46875 -8.0625 L 5.46875 0 L 2.1875 0 L 2.1875 -17.328125 L 7.1875 -17.328125 L 11.28125 -4.078125 L 11.359375 -4.078125 L 15.703125 -17.328125 L 20.71875 -17.328125 L 20.71875 0 L 17.28125 0 L 17.28125 -8.203125 C 17.28125 -8.585938 17.285156 -9.03125 17.296875 -9.53125 C 17.316406 -10.039062 17.375 -11.390625 17.46875 -13.578125 L 17.359375 -13.578125 L 12.890625 0 Z M 9.515625 0 "/></g></g></g><g fill="#f97316" fill-opacity="1"><g transform="translate(200.094385, 134.634275)"><g><path d="M 12.796875 0 L 11.53125 -4.125 L 5.21875 -4.125 L 3.953125 0 L 0 0 L 6.125 -17.40625 L 10.609375 -17.40625 L 16.75 0 Z M 10.65625 -7.203125 C 9.5 -10.941406 8.847656 -13.054688 8.703125 -13.546875 C 8.554688 -14.035156 8.445312 -14.425781 8.375 -14.71875 C 8.113281 -13.707031 7.367188 -11.203125 6.140625 -7.203125 Z M 10.65625 -7.203125 "/></g></g></g><g fill="#f97316" fill-opacity="1"><g transform="translate(220.017218, 134.634275)"><g><path d="M 5.859375 -9.640625 L 7.046875 -9.640625 C 8.203125 -9.640625 9.054688 -9.832031 9.609375 -10.21875 C 10.160156 -10.601562 10.4375 -11.210938 10.4375 -12.046875 C 10.4375 -12.867188 10.15625 -13.453125 9.59375 -13.796875 C 9.03125 -14.148438 8.15625 -14.328125 6.96875 -14.328125 L 5.859375 -14.328125 Z M 5.859375 -6.65625 L 5.859375 0 L 2.1875 0 L 2.1875 -17.328125 L 7.234375 -17.328125 C 9.585938 -17.328125 11.328125 -16.898438 12.453125 -16.046875 C 13.585938 -15.191406 14.15625 -13.890625 14.15625 -12.140625 C 14.15625 -11.117188 13.875 -10.210938 13.3125 -9.421875 C 12.75 -8.628906 11.957031 -8.003906 10.9375 -7.546875 C 13.539062 -3.648438 15.238281 -1.132812 16.03125 0 L 11.953125 0 L 7.8125 -6.65625 Z M 5.859375 -6.65625 "/></g></g></g><g fill="#f97316" fill-opacity="1"><g transform="translate(239.217297, 134.634275)"><g><path d="M 8.765625 -9.734375 L 15.640625 -9.734375 L 15.640625 -0.75 C 14.523438 -0.382812 13.472656 -0.128906 12.484375 0.015625 C 11.503906 0.160156 10.5 0.234375 9.46875 0.234375 C 6.851562 0.234375 4.851562 -0.53125 3.46875 -2.0625 C 2.09375 -3.601562 1.40625 -5.8125 1.40625 -8.6875 C 1.40625 -11.488281 2.207031 -13.671875 3.8125 -15.234375 C 5.414062 -16.796875 7.632812 -17.578125 10.46875 -17.578125 C 12.25 -17.578125 13.960938 -17.222656 15.609375 -16.515625 L 14.390625 -13.578125 C 13.128906 -14.210938 11.8125 -14.53125 10.4375 -14.53125 C 8.851562 -14.53125 7.582031 -13.992188 6.625 -12.921875 C 5.664062 -11.859375 5.1875 -10.425781 5.1875 -8.625 C 5.1875 -6.738281 5.570312 -5.300781 6.34375 -4.3125 C 7.113281 -3.320312 8.234375 -2.828125 9.703125 -2.828125 C 10.472656 -2.828125 11.253906 -2.90625 12.046875 -3.0625 L 12.046875 -6.671875 L 8.765625 -6.671875 Z M 8.765625 -9.734375 "/></g></g></g><g fill="#f97316" fill-opacity="1"><g transform="translate(259.969513, 134.634275)"><g><path d="M 17.921875 -8.6875 C 17.921875 -5.820312 17.207031 -3.617188 15.78125 -2.078125 C 14.351562 -0.535156 12.3125 0.234375 9.65625 0.234375 C 7 0.234375 4.957031 -0.535156 3.53125 -2.078125 C 2.113281 -3.617188 1.40625 -5.832031 1.40625 -8.71875 C 1.40625 -11.601562 2.117188 -13.804688 3.546875 -15.328125 C 4.972656 -16.847656 7.019531 -17.609375 9.6875 -17.609375 C 12.351562 -17.609375 14.390625 -16.835938 15.796875 -15.296875 C 17.210938 -13.765625 17.921875 -11.5625 17.921875 -8.6875 Z M 5.265625 -8.6875 C 5.265625 -6.75 5.628906 -5.289062 6.359375 -4.3125 C 7.097656 -3.332031 8.195312 -2.84375 9.65625 -2.84375 C 12.59375 -2.84375 14.0625 -4.789062 14.0625 -8.6875 C 14.0625 -12.59375 12.601562 -14.546875 9.6875 -14.546875 C 8.226562 -14.546875 7.125 -14.050781 6.375 -13.0625 C 5.632812 -12.082031 5.265625 -10.625 5.265625 -8.6875 Z M 5.265625 -8.6875 "/></g></g></g><g fill="#000000" fill-opacity="1"><g transform="translate(63.120047, 104.090702)"><g><path d="M 39.234375 -21.375 C 39.234375 -14.53125 37.347656 -9.253906 33.578125 -5.546875 C 29.816406 -1.847656 24.523438 0 17.703125 0 L 4.4375 0 L 4.4375 -41 L 18.625 -41 C 25.207031 -41 30.285156 -39.316406 33.859375 -35.953125 C 37.441406 -32.585938 39.234375 -27.726562 39.234375 -21.375 Z M 27.734375 -20.984375 C 27.734375 -24.734375 26.988281 -27.515625 25.5 -29.328125 C 24.019531 -31.148438 21.765625 -32.0625 18.734375 -32.0625 L 15.515625 -32.0625 L 15.515625 -9.09375 L 17.984375 -9.09375 C 21.347656 -9.09375 23.8125 -10.066406 25.375 -12.015625 C 26.945312 -13.972656 27.734375 -16.960938 27.734375 -20.984375 Z M 27.734375 -20.984375 "/></g></g></g><g fill="#000000" fill-opacity="1"><g transform="translate(105.263573, 104.090702)"><g><path d="M 28.78125 0 L 4.4375 0 L 4.4375 -41 L 28.78125 -41 L 28.78125 -32.109375 L 15.515625 -32.109375 L 15.515625 -25.65625 L 27.796875 -25.65625 L 27.796875 -16.765625 L 15.515625 -16.765625 L 15.515625 -9.03125 L 28.78125 -9.03125 Z M 28.78125 0 "/></g></g></g><g fill="#000000" fill-opacity="1"><g transform="translate(136.780083, 104.090702)"><g><path d="M 34.1875 -27.96875 C 34.1875 -23.382812 32.832031 -19.84375 30.125 -17.34375 C 27.425781 -14.851562 23.59375 -13.609375 18.625 -13.609375 L 15.515625 -13.609375 L 15.515625 0 L 4.4375 0 L 4.4375 -41 L 18.625 -41 C 23.800781 -41 27.6875 -39.867188 30.28125 -37.609375 C 32.882812 -35.347656 34.1875 -32.132812 34.1875 -27.96875 Z M 15.515625 -22.640625 L 17.53125 -22.640625 C 19.195312 -22.640625 20.519531 -23.101562 21.5 -24.03125 C 22.476562 -24.96875 22.96875 -26.257812 22.96875 -27.90625 C 22.96875 -30.675781 21.4375 -32.0625 18.375 -32.0625 L 15.515625 -32.0625 Z M 15.515625 -22.640625 "/></g></g></g><g fill="#000000" fill-opacity="1"><g transform="translate(173.063323, 104.090702)"><g><path d="M 42.796875 -20.5625 C 42.796875 -13.65625 41.101562 -8.40625 37.71875 -4.8125 C 34.332031 -1.226562 29.378906 0.5625 22.859375 0.5625 C 16.421875 0.5625 11.488281 -1.238281 8.0625 -4.84375 C 4.632812 -8.457031 2.921875 -13.710938 2.921875 -20.609375 C 2.921875 -27.429688 4.625 -32.640625 8.03125 -36.234375 C 11.445312 -39.835938 16.40625 -41.640625 22.90625 -41.640625 C 29.4375 -41.640625 34.382812 -39.851562 37.75 -36.28125 C 41.113281 -32.71875 42.796875 -27.476562 42.796875 -20.5625 Z M 14.578125 -20.5625 C 14.578125 -12.632812 17.335938 -8.671875 22.859375 -8.671875 C 25.660156 -8.671875 27.738281 -9.628906 29.09375 -11.546875 C 30.445312 -13.472656 31.125 -16.476562 31.125 -20.5625 C 31.125 -24.65625 30.4375 -27.675781 29.0625 -29.625 C 27.695312 -31.582031 25.644531 -32.5625 22.90625 -32.5625 C 17.351562 -32.5625 14.578125 -28.5625 14.578125 -20.5625 Z M 14.578125 -20.5625 "/></g></g></g><g fill="#000000" fill-opacity="1"><g transform="translate(218.823949, 104.090702)"><g><path d="M 31.25 -12.453125 C 31.25 -9.910156 30.601562 -7.648438 29.3125 -5.671875 C 28.019531 -3.703125 26.15625 -2.171875 23.71875 -1.078125 C 21.289062 0.015625 18.441406 0.5625 15.171875 0.5625 C 12.441406 0.5625 10.148438 0.367188 8.296875 -0.015625 C 6.453125 -0.398438 4.53125 -1.066406 2.53125 -2.015625 L 2.53125 -11.890625 C 4.632812 -10.804688 6.828125 -9.957031 9.109375 -9.34375 C 11.390625 -8.738281 13.484375 -8.4375 15.390625 -8.4375 C 17.035156 -8.4375 18.242188 -8.722656 19.015625 -9.296875 C 19.785156 -9.867188 20.171875 -10.601562 20.171875 -11.5 C 20.171875 -12.0625 20.015625 -12.550781 19.703125 -12.96875 C 19.390625 -13.394531 18.890625 -13.820312 18.203125 -14.25 C 17.523438 -14.675781 15.710938 -15.554688 12.765625 -16.890625 C 10.085938 -18.097656 8.078125 -19.269531 6.734375 -20.40625 C 5.398438 -21.550781 4.410156 -22.863281 3.765625 -24.34375 C 3.117188 -25.820312 2.796875 -27.570312 2.796875 -29.59375 C 2.796875 -33.363281 4.171875 -36.304688 6.921875 -38.421875 C 9.671875 -40.535156 13.445312 -41.59375 18.25 -41.59375 C 22.5 -41.59375 26.832031 -40.609375 31.25 -38.640625 L 27.84375 -30.09375 C 24.007812 -31.851562 20.703125 -32.734375 17.921875 -32.734375 C 16.484375 -32.734375 15.4375 -32.476562 14.78125 -31.96875 C 14.125 -31.46875 13.796875 -30.84375 13.796875 -30.09375 C 13.796875 -29.289062 14.210938 -28.570312 15.046875 -27.9375 C 15.878906 -27.300781 18.132812 -26.140625 21.8125 -24.453125 C 25.351562 -22.867188 27.8125 -21.164062 29.1875 -19.34375 C 30.5625 -17.519531 31.25 -15.222656 31.25 -12.453125 Z M 31.25 -12.453125 "/></g></g></g><g fill="#000000" fill-opacity="1"><g transform="translate(251.966755, 104.090702)"><g><path d="M 4.4375 0 L 4.4375 -41 L 15.5625 -41 L 15.5625 0 Z M 4.4375 0 "/></g></g></g><g fill="#000000" fill-opacity="1"><g transform="translate(271.958998, 104.090702)"><g><path d="M 22.515625 0 L 11.4375 0 L 11.4375 -31.9375 L 1.4375 -31.9375 L 1.4375 -41 L 32.5 -41 L 32.5 -31.9375 L 22.515625 -31.9375 Z M 22.515625 0 "/></g></g></g><g fill="#000000" fill-opacity="1"><g transform="translate(305.886912, 104.090702)"><g><path d="M 42.796875 -20.5625 C 42.796875 -13.65625 41.101562 -8.40625 37.71875 -4.8125 C 34.332031 -1.226562 29.378906 0.5625 22.859375 0.5625 C 16.421875 0.5625 11.488281 -1.238281 8.0625 -4.84375 C 4.632812 -8.457031 2.921875 -13.710938 2.921875 -20.609375 C 2.921875 -27.429688 4.625 -32.640625 8.03125 -36.234375 C 11.445312 -39.835938 16.40625 -41.640625 22.90625 -41.640625 C 29.4375 -41.640625 34.382812 -39.851562 37.75 -36.28125 C 41.113281 -32.71875 42.796875 -27.476562 42.796875 -20.5625 Z M 14.578125 -20.5625 C 14.578125 -12.632812 17.335938 -8.671875 22.859375 -8.671875 C 25.660156 -8.671875 27.738281 -9.628906 29.09375 -11.546875 C 30.445312 -13.472656 31.125 -16.476562 31.125 -20.5625 C 31.125 -24.65625 30.4375 -27.675781 29.0625 -29.625 C 27.695312 -31.582031 25.644531 -32.5625 22.90625 -32.5625 C 17.351562 -32.5625 14.578125 -28.5625 14.578125 -20.5625 Z M 14.578125 -20.5625 "/></g></g></g><g clip-path="url(#92a28ca354)"><path fill="#f97316" d="M 205.835938 0.0078125 L 226.9375 21.105469 L 228.347656 25.609375 L 228.347656 15.6875 L 235.175781 15.808594 L 235.175781 32.347656 L 235.925781 30.097656 L 257.042969 51.214844 L 243.367188 51.214844 L 205.835938 13.683594 L 168.308594 51.214844 L 154.628906 51.214844 L 205.835938 0.0078125 " fill-opacity="1" fill-rule="nonzero"/></g><g clip-path="url(#24c349b890)"><path fill="#f97316" d="M 204.554688 51.214844 L 198.503906 51.214844 L 198.503906 45.160156 L 204.554688 45.160156 L 204.554688 51.214844 " fill-opacity="1" fill-rule="nonzero"/></g><g clip-path="url(#c2f68101a4)"><path fill="#f97316" d="M 213.167969 51.214844 L 207.117188 51.214844 L 207.117188 45.160156 L 213.167969 45.160156 L 213.167969 51.214844 " fill-opacity="1" fill-rule="nonzero"/></g><path fill="#f97316" d="M 204.554688 43.296875 L 198.503906 43.296875 L 198.503906 37.246094 L 204.554688 37.246094 L 204.554688 43.296875 " fill-opacity="1" fill-rule="nonzero"/><path fill="#f97316" d="M 213.167969 43.296875 L 207.117188 43.296875 L 207.117188 37.246094 L 213.167969 37.246094 L 213.167969 43.296875 " fill-opacity="1" fill-rule="nonzero"/><path fill="#f97316" d="M 205.835938 22.90625 L 228.089844 39.582031 L 205.835938 17.328125 L 183.585938 39.582031 L 205.835938 22.90625 " fill-opacity="1" fill-rule="nonzero"/><g clip-path="url(#622e1f5335)"><path fill="#f97316" d="M 143.925781 37.246094 L 142.820312 40.773438 L 142.820312 33.003906 L 137.46875 33.097656 L 137.46875 46.050781 L 136.882812 44.289062 L 132.984375 48.1875 L 64.4375 48.1875 L 64.4375 51.214844 L 140.671875 51.214844 L 160.457031 31.429688 L 165.191406 36.167969 L 170.550781 30.808594 L 160.457031 20.714844 L 143.925781 37.246094 " fill-opacity="1" fill-rule="nonzero"/></g><g clip-path="url(#c7eff5facc)"><path fill="#f97316" d="M 278.6875 48.1875 L 274.792969 44.289062 L 274.203125 46.050781 L 274.203125 33.097656 L 268.851562 33.003906 L 268.851562 40.773438 L 267.746094 37.246094 L 251.21875 20.714844 L 241.125 30.808594 L 246.480469 36.167969 L 251.21875 31.429688 L 271 51.214844 L 347.234375 51.214844 L 347.234375 48.1875 L 278.6875 48.1875 " fill-opacity="1" fill-rule="nonzero"/></g></svg>