<svg xmlns="http://www.w3.org/2000/svg" xmlns:xlink="http://www.w3.org/1999/xlink" width="375" zoomAndPan="magnify" viewBox="0 0 281.25 101.249998" height="135" preserveAspectRatio="xMidYMid meet" version="1.0"><defs><g/><clipPath id="7883384dea"><path d="M 104 0 L 174 0 L 174 34.992188 L 104 34.992188 Z M 104 0 " clip-rule="nonzero"/></clipPath><clipPath id="7dc133adb4"><path d="M 134 30 L 139 30 L 139 34.992188 L 134 34.992188 Z M 134 30 " clip-rule="nonzero"/></clipPath><clipPath id="0958f5e1c0"><path d="M 140 30 L 145 30 L 145 34.992188 L 140 34.992188 Z M 140 30 " clip-rule="nonzero"/></clipPath><clipPath id="be89c77c4a"><path d="M 43.644531 13 L 116 13 L 116 34.992188 L 43.644531 34.992188 Z M 43.644531 13 " clip-rule="nonzero"/></clipPath><clipPath id="575dd73f59"><path d="M 163 13 L 234.976562 13 L 234.976562 34.992188 L 163 34.992188 Z M 163 13 " clip-rule="nonzero"/></clipPath></defs><g fill="#f97316" fill-opacity="1"><g transform="translate(91.631664, 90.940313)"><g><path d="M 6.453125 -9.8125 C 5.515625 -9.8125 4.789062 -9.457031 4.28125 -8.75 C 3.769531 -8.050781 3.515625 -7.078125 3.515625 -5.828125 C 3.515625 -3.210938 4.492188 -1.90625 6.453125 -1.90625 C 7.273438 -1.90625 8.269531 -2.109375 9.4375 -2.515625 L 9.4375 -0.4375 C 8.476562 -0.0390625 7.40625 0.15625 6.21875 0.15625 C 4.507812 0.15625 3.203125 -0.359375 2.296875 -1.390625 C 1.398438 -2.421875 0.953125 -3.90625 0.953125 -5.84375 C 0.953125 -7.0625 1.171875 -8.128906 1.609375 -9.046875 C 2.054688 -9.960938 2.695312 -10.660156 3.53125 -11.140625 C 4.363281 -11.628906 5.335938 -11.875 6.453125 -11.875 C 7.585938 -11.875 8.726562 -11.601562 9.875 -11.0625 L 9.078125 -9.03125 C 8.640625 -9.238281 8.195312 -9.421875 7.75 -9.578125 C 7.3125 -9.734375 6.878906 -9.8125 6.453125 -9.8125 Z M 6.453125 -9.8125 "/></g></g></g><g fill="#f97316" fill-opacity="1"><g transform="translate(104.224445, 90.940313)"><g><path d="M 8.640625 0 L 7.796875 -2.78125 L 3.53125 -2.78125 L 2.671875 0 L 0 0 L 4.140625 -11.765625 L 7.171875 -11.765625 L 11.3125 0 Z M 7.203125 -4.875 C 6.421875 -7.394531 5.976562 -8.820312 5.875 -9.15625 C 5.78125 -9.488281 5.707031 -9.75 5.65625 -9.9375 C 5.488281 -9.257812 4.988281 -7.570312 4.15625 -4.875 Z M 7.203125 -4.875 "/></g></g></g><g fill="#f97316" fill-opacity="1"><g transform="translate(117.681559, 90.940313)"><g><path d="M 6.4375 0 L 3.609375 -9.1875 L 3.546875 -9.1875 C 3.640625 -7.320312 3.6875 -6.078125 3.6875 -5.453125 L 3.6875 0 L 1.46875 0 L 1.46875 -11.71875 L 4.859375 -11.71875 L 7.625 -2.75 L 7.671875 -2.75 L 10.609375 -11.71875 L 14 -11.71875 L 14 0 L 11.6875 0 L 11.6875 -5.546875 C 11.6875 -5.804688 11.6875 -6.109375 11.6875 -6.453125 C 11.695312 -6.796875 11.734375 -7.703125 11.796875 -9.171875 L 11.734375 -9.171875 L 8.703125 0 Z M 6.4375 0 "/></g></g></g><g fill="#f97316" fill-opacity="1"><g transform="translate(135.284269, 90.940313)"><g><path d="M 8.640625 0 L 7.796875 -2.78125 L 3.53125 -2.78125 L 2.671875 0 L 0 0 L 4.140625 -11.765625 L 7.171875 -11.765625 L 11.3125 0 Z M 7.203125 -4.875 C 6.421875 -7.394531 5.976562 -8.820312 5.875 -9.15625 C 5.78125 -9.488281 5.707031 -9.75 5.65625 -9.9375 C 5.488281 -9.257812 4.988281 -7.570312 4.15625 -4.875 Z M 7.203125 -4.875 "/></g></g></g><g fill="#f97316" fill-opacity="1"><g transform="translate(148.741382, 90.940313)"><g><path d="M 3.953125 -6.515625 L 4.765625 -6.515625 C 5.546875 -6.515625 6.125 -6.644531 6.5 -6.90625 C 6.875 -7.164062 7.0625 -7.578125 7.0625 -8.140625 C 7.0625 -8.691406 6.867188 -9.082031 6.484375 -9.3125 C 6.097656 -9.550781 5.503906 -9.671875 4.703125 -9.671875 L 3.953125 -9.671875 Z M 3.953125 -4.5 L 3.953125 0 L 1.46875 0 L 1.46875 -11.71875 L 4.890625 -11.71875 C 6.484375 -11.71875 7.660156 -11.425781 8.421875 -10.84375 C 9.179688 -10.257812 9.5625 -9.378906 9.5625 -8.203125 C 9.5625 -7.515625 9.367188 -6.898438 8.984375 -6.359375 C 8.609375 -5.828125 8.078125 -5.410156 7.390625 -5.109375 C 9.148438 -2.472656 10.296875 -0.769531 10.828125 0 L 8.078125 0 L 5.28125 -4.5 Z M 3.953125 -4.5 "/></g></g></g><g fill="#f97316" fill-opacity="1"><g transform="translate(161.710303, 90.940313)"><g><path d="M 5.921875 -6.578125 L 10.5625 -6.578125 L 10.5625 -0.5 C 9.8125 -0.257812 9.101562 -0.09375 8.4375 0 C 7.769531 0.101562 7.09375 0.15625 6.40625 0.15625 C 4.632812 0.15625 3.28125 -0.359375 2.34375 -1.390625 C 1.414062 -2.429688 0.953125 -3.925781 0.953125 -5.875 C 0.953125 -7.757812 1.492188 -9.226562 2.578125 -10.28125 C 3.660156 -11.34375 5.160156 -11.875 7.078125 -11.875 C 8.273438 -11.875 9.429688 -11.632812 10.546875 -11.15625 L 9.71875 -9.171875 C 8.863281 -9.597656 7.976562 -9.8125 7.0625 -9.8125 C 5.988281 -9.8125 5.128906 -9.453125 4.484375 -8.734375 C 3.835938 -8.015625 3.515625 -7.046875 3.515625 -5.828125 C 3.515625 -4.554688 3.773438 -3.582031 4.296875 -2.90625 C 4.816406 -2.238281 5.570312 -1.90625 6.5625 -1.90625 C 7.082031 -1.90625 7.609375 -1.957031 8.140625 -2.0625 L 8.140625 -4.515625 L 5.921875 -4.515625 Z M 5.921875 -6.578125 "/></g></g></g><g fill="#f97316" fill-opacity="1"><g transform="translate(175.727632, 90.940313)"><g><path d="M 12.109375 -5.875 C 12.109375 -3.9375 11.625 -2.445312 10.65625 -1.40625 C 9.695312 -0.363281 8.320312 0.15625 6.53125 0.15625 C 4.738281 0.15625 3.359375 -0.363281 2.390625 -1.40625 C 1.429688 -2.445312 0.953125 -3.941406 0.953125 -5.890625 C 0.953125 -7.835938 1.429688 -9.320312 2.390625 -10.34375 C 3.359375 -11.375 4.742188 -11.890625 6.546875 -11.890625 C 8.347656 -11.890625 9.722656 -11.367188 10.671875 -10.328125 C 11.628906 -9.296875 12.109375 -7.8125 12.109375 -5.875 Z M 3.5625 -5.875 C 3.5625 -4.5625 3.804688 -3.570312 4.296875 -2.90625 C 4.796875 -2.25 5.539062 -1.921875 6.53125 -1.921875 C 8.507812 -1.921875 9.5 -3.238281 9.5 -5.875 C 9.5 -8.507812 8.515625 -9.828125 6.546875 -9.828125 C 5.554688 -9.828125 4.8125 -9.492188 4.3125 -8.828125 C 3.8125 -8.160156 3.5625 -7.175781 3.5625 -5.875 Z M 3.5625 -5.875 "/></g></g></g><g fill="#000000" fill-opacity="1"><g transform="translate(42.76333, 70.309296)"><g><path d="M 26.5 -14.4375 C 26.5 -9.8125 25.226562 -6.25 22.6875 -3.75 C 20.144531 -1.25 16.566406 0 11.953125 0 L 3 0 L 3 -27.703125 L 12.578125 -27.703125 C 17.023438 -27.703125 20.457031 -26.5625 22.875 -24.28125 C 25.289062 -22.007812 26.5 -18.726562 26.5 -14.4375 Z M 18.734375 -14.171875 C 18.734375 -16.710938 18.226562 -18.59375 17.21875 -19.8125 C 16.21875 -21.039062 14.695312 -21.65625 12.65625 -21.65625 L 10.46875 -21.65625 L 10.46875 -6.140625 L 12.140625 -6.140625 C 14.410156 -6.140625 16.078125 -6.796875 17.140625 -8.109375 C 18.203125 -9.429688 18.734375 -11.453125 18.734375 -14.171875 Z M 18.734375 -14.171875 "/></g></g></g><g fill="#000000" fill-opacity="1"><g transform="translate(71.229673, 70.309296)"><g><path d="M 19.4375 0 L 3 0 L 3 -27.703125 L 19.4375 -27.703125 L 19.4375 -21.6875 L 10.46875 -21.6875 L 10.46875 -17.328125 L 18.765625 -17.328125 L 18.765625 -11.328125 L 10.46875 -11.328125 L 10.46875 -6.09375 L 19.4375 -6.09375 Z M 19.4375 0 "/></g></g></g><g fill="#000000" fill-opacity="1"><g transform="translate(92.517871, 70.309296)"><g><path d="M 23.09375 -18.890625 C 23.09375 -15.796875 22.179688 -13.40625 20.359375 -11.71875 C 18.535156 -10.03125 15.941406 -9.1875 12.578125 -9.1875 L 10.46875 -9.1875 L 10.46875 0 L 3 0 L 3 -27.703125 L 12.578125 -27.703125 C 16.078125 -27.703125 18.703125 -26.9375 20.453125 -25.40625 C 22.210938 -23.875 23.09375 -21.703125 23.09375 -18.890625 Z M 10.46875 -15.28125 L 11.84375 -15.28125 C 12.96875 -15.28125 13.859375 -15.597656 14.515625 -16.234375 C 15.179688 -16.867188 15.515625 -17.738281 15.515625 -18.84375 C 15.515625 -20.71875 14.476562 -21.65625 12.40625 -21.65625 L 10.46875 -21.65625 Z M 10.46875 -15.28125 "/></g></g></g><g fill="#000000" fill-opacity="1"><g transform="translate(117.025815, 70.309296)"><g><path d="M 28.90625 -13.890625 C 28.90625 -9.222656 27.757812 -5.675781 25.46875 -3.25 C 23.1875 -0.832031 19.84375 0.375 15.4375 0.375 C 11.09375 0.375 7.757812 -0.84375 5.4375 -3.28125 C 3.125 -5.71875 1.96875 -9.265625 1.96875 -13.921875 C 1.96875 -18.535156 3.117188 -22.054688 5.421875 -24.484375 C 7.734375 -26.910156 11.085938 -28.125 15.484375 -28.125 C 19.890625 -28.125 23.226562 -26.914062 25.5 -24.5 C 27.769531 -22.09375 28.90625 -18.554688 28.90625 -13.890625 Z M 9.84375 -13.890625 C 9.84375 -8.535156 11.707031 -5.859375 15.4375 -5.859375 C 17.332031 -5.859375 18.738281 -6.503906 19.65625 -7.796875 C 20.570312 -9.097656 21.03125 -11.128906 21.03125 -13.890625 C 21.03125 -16.648438 20.566406 -18.691406 19.640625 -20.015625 C 18.710938 -21.335938 17.328125 -22 15.484375 -22 C 11.722656 -22 9.84375 -19.296875 9.84375 -13.890625 Z M 9.84375 -13.890625 "/></g></g></g><g fill="#000000" fill-opacity="1"><g transform="translate(147.935371, 70.309296)"><g><path d="M 21.109375 -8.40625 C 21.109375 -6.6875 20.671875 -5.160156 19.796875 -3.828125 C 18.921875 -2.503906 17.660156 -1.472656 16.015625 -0.734375 C 14.378906 0.00390625 12.457031 0.375 10.25 0.375 C 8.40625 0.375 6.859375 0.25 5.609375 0 C 4.359375 -0.257812 3.054688 -0.710938 1.703125 -1.359375 L 1.703125 -8.03125 C 3.128906 -7.300781 4.613281 -6.726562 6.15625 -6.3125 C 7.695312 -5.90625 9.113281 -5.703125 10.40625 -5.703125 C 11.507812 -5.703125 12.320312 -5.894531 12.84375 -6.28125 C 13.363281 -6.664062 13.625 -7.160156 13.625 -7.765625 C 13.625 -8.140625 13.519531 -8.46875 13.3125 -8.75 C 13.101562 -9.039062 12.765625 -9.332031 12.296875 -9.625 C 11.835938 -9.914062 10.613281 -10.507812 8.625 -11.40625 C 6.8125 -12.226562 5.453125 -13.023438 4.546875 -13.796875 C 3.648438 -14.566406 2.984375 -15.445312 2.546875 -16.4375 C 2.109375 -17.4375 1.890625 -18.617188 1.890625 -19.984375 C 1.890625 -22.535156 2.816406 -24.523438 4.671875 -25.953125 C 6.535156 -27.378906 9.085938 -28.09375 12.328125 -28.09375 C 15.191406 -28.09375 18.117188 -27.429688 21.109375 -26.109375 L 18.8125 -20.328125 C 16.21875 -21.515625 13.984375 -22.109375 12.109375 -22.109375 C 11.128906 -22.109375 10.421875 -21.9375 9.984375 -21.59375 C 9.546875 -21.25 9.328125 -20.828125 9.328125 -20.328125 C 9.328125 -19.785156 9.601562 -19.296875 10.15625 -18.859375 C 10.71875 -18.429688 12.242188 -17.648438 14.734375 -16.515625 C 17.117188 -15.441406 18.773438 -14.289062 19.703125 -13.0625 C 20.640625 -11.832031 21.109375 -10.28125 21.109375 -8.40625 Z M 21.109375 -8.40625 "/></g></g></g><g fill="#000000" fill-opacity="1"><g transform="translate(170.322071, 70.309296)"><g><path d="M 3 0 L 3 -27.703125 L 10.515625 -27.703125 L 10.515625 0 Z M 3 0 "/></g></g></g><g fill="#000000" fill-opacity="1"><g transform="translate(183.826067, 70.309296)"><g><path d="M 15.21875 0 L 7.734375 0 L 7.734375 -21.578125 L 0.96875 -21.578125 L 0.96875 -27.703125 L 21.953125 -27.703125 L 21.953125 -21.578125 L 15.21875 -21.578125 Z M 15.21875 0 "/></g></g></g><g fill="#000000" fill-opacity="1"><g transform="translate(206.743078, 70.309296)"><g><path d="M 28.90625 -13.890625 C 28.90625 -9.222656 27.757812 -5.675781 25.46875 -3.25 C 23.1875 -0.832031 19.84375 0.375 15.4375 0.375 C 11.09375 0.375 7.757812 -0.84375 5.4375 -3.28125 C 3.125 -5.71875 1.96875 -9.265625 1.96875 -13.921875 C 1.96875 -18.535156 3.117188 -22.054688 5.421875 -24.484375 C 7.734375 -26.910156 11.085938 -28.125 15.484375 -28.125 C 19.890625 -28.125 23.226562 -26.914062 25.5 -24.5 C 27.769531 -22.09375 28.90625 -18.554688 28.90625 -13.890625 Z M 9.84375 -13.890625 C 9.84375 -8.535156 11.707031 -5.859375 15.4375 -5.859375 C 17.332031 -5.859375 18.738281 -6.503906 19.65625 -7.796875 C 20.570312 -9.097656 21.03125 -11.128906 21.03125 -13.890625 C 21.03125 -16.648438 20.566406 -18.691406 19.640625 -20.015625 C 18.710938 -21.335938 17.328125 -22 15.484375 -22 C 11.722656 -22 9.84375 -19.296875 9.84375 -13.890625 Z M 9.84375 -13.890625 "/></g></g></g><g clip-path="url(#7883384dea)"><path fill="#f97316" d="M 139.164062 0.00390625 L 153.414062 14.257812 L 154.367188 17.296875 L 154.367188 10.597656 L 158.980469 10.679688 L 158.980469 21.847656 L 159.488281 20.328125 L 173.75 34.59375 L 164.511719 34.59375 L 139.164062 9.242188 L 113.8125 34.59375 L 104.574219 34.59375 L 139.164062 0.00390625 " fill-opacity="1" fill-rule="nonzero"/></g><g clip-path="url(#7dc133adb4)"><path fill="#f97316" d="M 138.296875 34.59375 L 134.210938 34.59375 L 134.210938 30.503906 L 138.296875 30.503906 L 138.296875 34.59375 " fill-opacity="1" fill-rule="nonzero"/></g><g clip-path="url(#0958f5e1c0)"><path fill="#f97316" d="M 144.117188 34.59375 L 140.027344 34.59375 L 140.027344 30.503906 L 144.117188 30.503906 L 144.117188 34.59375 " fill-opacity="1" fill-rule="nonzero"/></g><path fill="#f97316" d="M 138.296875 29.246094 L 134.210938 29.246094 L 134.210938 25.160156 L 138.296875 25.160156 L 138.296875 29.246094 " fill-opacity="1" fill-rule="nonzero"/><path fill="#f97316" d="M 144.117188 29.246094 L 140.027344 29.246094 L 140.027344 25.160156 L 144.117188 25.160156 L 144.117188 29.246094 " fill-opacity="1" fill-rule="nonzero"/><path fill="#f97316" d="M 139.164062 15.472656 L 154.195312 26.734375 L 139.164062 11.703125 L 124.132812 26.734375 L 139.164062 15.472656 " fill-opacity="1" fill-rule="nonzero"/><g clip-path="url(#be89c77c4a)"><path fill="#f97316" d="M 97.34375 25.160156 L 96.597656 27.542969 L 96.597656 22.292969 L 92.984375 22.355469 L 92.984375 31.105469 L 92.585938 29.914062 L 89.953125 32.546875 L 43.652344 32.546875 L 43.652344 34.59375 L 95.148438 34.59375 L 108.511719 21.230469 L 111.707031 24.429688 L 115.328125 20.808594 L 108.511719 13.992188 L 97.34375 25.160156 " fill-opacity="1" fill-rule="nonzero"/></g><g clip-path="url(#575dd73f59)"><path fill="#f97316" d="M 188.371094 32.546875 L 185.738281 29.914062 L 185.34375 31.105469 L 185.34375 22.355469 L 181.726562 22.292969 L 181.726562 27.542969 L 180.980469 25.160156 L 169.816406 13.992188 L 163 20.808594 L 166.617188 24.429688 L 169.816406 21.230469 L 183.175781 34.59375 L 234.671875 34.59375 L 234.671875 32.546875 L 188.371094 32.546875 " fill-opacity="1" fill-rule="nonzero"/></g></svg>